<svg xmlns="http://www.w3.org/2000/svg" width="1154" height="1390" viewBox="0 0 1154 1390" version="1.1"><path d="M 11.129 1.001 C 5.289 2.380, 3.983 4.619, 2.909 15.091 C 1.728 26.609, 0.114 218.414, 0.049 355.080 L -0 455.661 4.534 458.917 C 8.020 461.421, 10.736 462.407, 16.284 463.183 C 20.921 463.832, 54.063 464.014, 109 463.692 C 179.031 463.282, 195.857 462.923, 202 461.707 C 230.799 456.008, 262.315 436.237, 279.233 413.256 C 284.329 406.333, 292.914 389.610, 295.960 380.671 C 299.375 370.652, 300.277 359.390, 299.733 333.557 C 299.165 306.551, 298.526 302.912, 291.904 289.008 C 283.698 271.777, 273.538 259.174, 253.604 241.499 C 247.032 235.672, 245.822 234.136, 246.390 232.345 C 246.766 231.161, 250.593 227.470, 254.895 224.142 C 270.948 211.724, 285.894 192.674, 291.998 176.852 C 293.770 172.258, 296.393 163.550, 297.826 157.500 C 300.197 147.494, 300.434 144.603, 300.453 125.500 C 300.472 106.916, 300.222 103.577, 298.274 96.476 C 292.223 74.418, 280.174 54.247, 262.508 36.604 C 252.518 26.627, 242.168 19.391, 228.656 12.936 C 209.133 3.610, 199.733 2.291, 143.500 0.984 C 95.695 -0.126, 15.859 -0.116, 11.129 1.001 M 341.637 1.465 C 335.798 3.547, 332.252 7.506, 330.948 13.401 C 330.244 16.580, 329.948 26.049, 330.160 38.547 C 330.660 68.010, 330.073 67.500, 363.500 67.500 C 383.500 67.500, 385.864 67.318, 389.500 65.500 C 396.697 61.902, 397.500 58.838, 397.500 35 C 397.500 16.500, 397.305 14.110, 395.500 10.500 C 391.598 2.696, 382.110 0.020, 358.500 0.064 C 350.055 0.079, 344.147 0.570, 341.637 1.465 M 458 1.053 C 437.612 1.817, 434.785 2.344, 431.500 5.990 C 429.610 8.088, 429.500 9.617, 429.500 33.899 C 429.500 62.218, 429.861 64.056, 435.689 65.384 C 443.576 67.182, 524.202 67.909, 725.500 67.999 C 847.600 68.054, 975.985 68.477, 1010.800 68.940 L 1074.101 69.782 1078.735 72.167 C 1081.965 73.829, 1083.663 75.454, 1084.337 77.526 C 1085.535 81.214, 1085.827 274.152, 1084.651 285.250 C 1083.205 298.891, 1083.965 299.891, 1050.882 240.806 C 1009.964 167.729, 986.090 126.594, 974.885 109.864 C 970.169 102.821, 968.216 100.791, 964.301 98.864 C 959.683 96.590, 958.662 96.502, 937.500 96.552 C 913.765 96.608, 908.950 97.330, 903.172 101.703 L 899.843 104.221 900.329 276.861 C 900.596 371.812, 901.194 451.519, 901.657 453.987 C 903.016 461.220, 904.182 461.500, 933 461.500 C 962.852 461.500, 964.527 461.232, 966.062 456.212 C 966.847 453.645, 967.476 422.573, 968.103 355.500 C 968.601 302.150, 969.368 256.250, 969.807 253.500 L 970.606 248.500 976.180 257 C 979.246 261.675, 998.748 296.325, 1019.518 334 C 1080.055 443.808, 1087.508 456.664, 1092.308 459.569 C 1095.217 461.329, 1097.541 461.500, 1118.500 461.500 C 1131.150 461.500, 1143.191 461.141, 1145.258 460.703 C 1151.208 459.442, 1152.029 457.237, 1153.044 439.809 C 1153.534 431.389, 1153.949 331.335, 1153.967 217.466 L 1154 10.432 1148.719 5.216 L 1143.437 0 810.469 0.161 C 627.336 0.250, 468.725 0.652, 458 1.053 M 84.372 74.906 C 75.775 75.983, 71.716 78.562, 70.765 83.551 C 70.350 85.723, 69.716 111.186, 69.354 140.135 L 68.696 192.771 72.625 195.370 C 75.713 197.414, 78.580 198.183, 86.027 198.968 C 105.540 201.023, 158.714 199.856, 178 196.950 C 198.141 193.916, 218.397 175.571, 226.401 153.118 C 229.216 145.222, 229.471 143.452, 229.448 132 C 229.427 121.301, 229.086 118.636, 227.080 113.500 C 221.971 100.419, 210.323 86.759, 199.043 80.620 C 189.405 75.374, 184.478 74.900, 135.500 74.503 C 110.750 74.302, 87.742 74.483, 84.372 74.906 M 344.936 96.940 C 336.096 97.864, 333.295 99.121, 331.854 102.811 C 331.276 104.290, 330.422 116.075, 329.955 129 C 328.824 160.324, 328.828 434.779, 329.961 447.458 C 330.602 454.646, 331.293 457.741, 332.443 458.582 C 338.948 463.339, 381.230 463.497, 391.532 458.803 C 392.835 458.210, 394.407 456.324, 395.025 454.612 C 395.644 452.900, 396.545 441.375, 397.029 429 C 398.163 399.966, 398.181 165.277, 397.052 132.275 C 395.809 95.951, 396.484 96.831, 369.527 96.414 C 360.162 96.269, 349.096 96.506, 344.936 96.940 M 444.500 96.896 C 435.618 97.849, 433.260 98.646, 431.920 101.149 C 429.592 105.500, 428.971 137.117, 428.392 281 C 427.781 432.729, 428.134 454.563, 431.252 457.680 C 432.058 458.487, 434.469 459.632, 436.609 460.225 C 439.252 460.958, 479.494 461.438, 562.114 461.725 C 680.737 462.136, 718.293 461.519, 722.839 459.086 C 725.619 457.598, 726.749 452.992, 728.109 437.612 C 730.124 414.831, 728.773 403.462, 723.191 396.208 L 721.428 393.916 617.464 392.956 C 559.815 392.424, 511.080 391.565, 508.067 391.029 C 501.281 389.822, 499.875 388.425, 498.771 381.790 C 498.287 378.881, 497.519 316.650, 497.065 243.500 C 496.546 160.073, 495.864 109.195, 495.234 107 C 493.489 100.915, 492.939 100.193, 488.776 98.527 C 484.084 96.650, 456.334 95.628, 444.500 96.896 M 726.688 97.968 C 717.577 99.731, 707.742 113.795, 659.236 194.423 C 619.869 259.863, 615.492 268.756, 605.328 303.946 C 598.763 326.678, 596.015 339.566, 596.041 347.500 C 596.068 355.862, 597.134 357.585, 603.079 358.873 C 615.032 361.463, 657.712 360.961, 665.124 358.143 C 668.589 356.825, 672.280 348.234, 680.457 322.451 C 690.912 289.484, 694.702 279.427, 701.922 265.500 C 709.357 251.157, 732.567 211.565, 740.112 200.354 C 744.547 193.762, 749.139 189, 751.058 189 C 754.104 189, 762.646 201.010, 779.741 229.329 C 794.093 253.105, 800 264.280, 800 267.656 C 800 270.873, 796.565 276.607, 793.661 278.239 C 792.177 279.073, 781.942 279.661, 761 280.116 C 729.269 280.805, 724.456 281.421, 720.121 285.346 C 716.410 288.707, 715.097 292.973, 713.464 306.990 C 711.239 326.078, 711.179 345.098, 713.332 348.384 C 717.329 354.484, 726.215 355.855, 763 356.045 C 776.555 356.115, 787.286 356.626, 789.992 357.330 C 797.446 359.271, 797.329 358.557, 798.107 406.503 C 798.804 449.380, 799.338 455.186, 802.877 458.389 C 805.960 461.179, 816.772 462.188, 839.788 461.834 C 862.082 461.491, 864.966 460.999, 866.495 457.278 C 868.201 453.127, 868.901 418.149, 868.949 334.724 L 869 245.948 860.557 230.049 C 842.186 195.456, 791.764 114.767, 781.154 102.982 C 777.995 99.473, 776.687 98.794, 771.500 97.967 C 764.602 96.868, 732.368 96.869, 726.688 97.968 M 79.139 274.948 C 73.413 276.387, 73.036 277.348, 71.856 293.564 C 70.002 319.017, 72.150 382.675, 75.044 388.083 C 75.583 389.090, 77.706 390.271, 79.762 390.707 C 81.818 391.143, 107.800 391.500, 137.500 391.500 L 191.500 391.500 197 388.620 C 204.500 384.692, 219.663 369.281, 223.683 361.500 C 227.752 353.624, 229 347.208, 229 334.169 C 229 321.541, 227.576 315.261, 222.915 307.333 C 218.522 299.861, 204.139 285.478, 196.667 281.085 C 185.952 274.786, 185.498 274.739, 131.500 274.406 C 104.550 274.240, 80.988 274.484, 79.139 274.948 M 359.500 490.109 C 337.958 493.216, 313.335 507.263, 297.808 525.304 C 282.026 543.640, 273.742 561.741, 269.343 587.500 C 266.844 602.131, 266.799 643.253, 269.269 654.692 C 279.868 703.786, 312.533 737.973, 355.926 745.389 C 392.053 751.563, 429.021 740.095, 451.618 715.703 C 463.360 703.029, 475.631 680.853, 479.634 665.070 C 484.772 644.817, 484.991 597.037, 480.047 574.815 C 472.887 542.627, 448.583 512.109, 419.676 499.009 C 400.735 490.424, 379.298 487.254, 359.500 490.109 M 179.831 491.966 C 160.388 495.485, 142.546 505.315, 126.377 521.416 C 112.293 535.441, 101.557 553.475, 95.611 573.099 C 91.185 587.702, 90.497 594.590, 90.576 623.500 C 90.646 649.205, 90.772 650.956, 93.210 660 C 101.992 692.589, 118.233 715.807, 143.044 731.239 C 168.056 746.796, 198.019 750.696, 229.500 742.493 C 253.724 736.181, 266.384 725.716, 264.555 713.518 C 263.587 707.064, 254.667 689.731, 249.582 684.424 C 244.475 679.094, 241.791 678.800, 232.799 682.585 C 213.541 690.690, 192.103 691.195, 177.765 683.880 C 172.309 681.097, 163.136 671.807, 159.616 665.500 C 151.983 651.824, 148.341 633.176, 149.364 613 C 151.093 578.902, 163.090 556.402, 183.589 548.816 C 188.699 546.925, 191.533 546.629, 204.500 546.632 C 219.958 546.636, 219.669 546.585, 234.339 551.946 C 240.061 554.037, 240.241 554.043, 243.339 552.234 C 245.078 551.219, 248.204 548.163, 250.288 545.444 C 255.127 539.126, 265 519.605, 265 516.354 C 265 509.898, 244.846 496.877, 229.500 493.418 C 221.462 491.607, 187.329 490.609, 179.831 491.966 M 521.695 493.067 C 511.277 493.983, 508.405 495.514, 507.297 500.742 C 506.111 506.337, 506.658 641.875, 507.946 661.526 C 509.302 682.215, 510.917 690.378, 515.460 699.500 C 528.441 725.570, 553.834 742.537, 585.250 746.130 C 599.518 747.763, 613.470 746.222, 628 741.409 C 641.309 737.001, 646.336 733.521, 660.253 719.086 C 683.371 695.106, 684.411 689.562, 684.466 590 C 684.489 546.714, 684.092 522.429, 683.173 511.006 C 682.443 501.934, 681.683 494.350, 681.486 494.152 C 680.768 493.435, 635.428 493.520, 632.850 494.244 C 627.845 495.649, 627.794 496.312, 626.957 571.500 C 625.831 672.614, 625.769 673.302, 616.981 682.106 C 610.768 688.330, 604.513 690.389, 593.633 689.792 C 584.577 689.295, 579.344 687.191, 574.086 681.933 C 566.788 674.634, 566.329 671.298, 565.001 616 C 562.351 505.676, 561.948 497.836, 558.822 495.880 C 554.758 493.337, 535.348 491.867, 521.695 493.067 M 8.646 493.975 C 6.526 494.384, 4.424 495.313, 3.976 496.039 C 1.963 499.296, 1.501 523.451, 1.522 624.500 C 1.544 734.089, 1.858 746.080, 5.564 779 C 11.978 835.963, 22.662 885.040, 39.960 937 C 62.644 1005.135, 93.399 1066.590, 134.546 1126 C 165.097 1170.111, 199.796 1209.604, 204.163 1205.237 C 206.122 1203.278, 206.891 1189.050, 206.946 1153.761 L 207 1119.021 194.390 1102.374 C 130.166 1017.592, 84.158 904.533, 70.034 796.787 C 64.416 753.928, 63.083 722.412, 61.945 605.500 C 61.420 551.600, 60.743 505.925, 60.441 504 C 59.264 496.499, 58.940 495.873, 55.497 494.434 C 52.872 493.337, 47.410 493.027, 32.282 493.115 C 21.402 493.178, 10.766 493.565, 8.646 493.975 M 718.347 494.016 C 716.111 494.719, 714.862 495.952, 714.054 498.254 C 712.525 502.611, 711.052 558.570, 711.046 612.500 C 711.041 661.983, 712.604 732.093, 713.811 736.500 C 715.040 740.988, 719.686 742.133, 737 742.214 C 752.792 742.288, 760.939 741.496, 763.478 739.640 C 766.280 737.591, 766.966 731.470, 768.090 698.500 C 768.690 680.900, 769.252 666.442, 769.340 666.372 C 769.428 666.301, 778.275 665.720, 789 665.080 C 835.463 662.308, 853.177 655.641, 869.892 634.636 C 880.518 621.282, 885.562 606.479, 886.633 585.500 C 888.382 551.257, 877.792 525.370, 855.538 509.490 C 846.037 502.710, 831.639 496.190, 823.500 494.981 C 813.969 493.566, 722.450 492.726, 718.347 494.016 M 921.235 493.938 C 917.239 494.319, 913.457 495.143, 912.830 495.770 C 910.428 498.172, 909.930 522.925, 910.212 626 C 910.517 737.399, 910.484 736.583, 914.807 738.897 C 919.573 741.447, 940.542 742.418, 990.500 742.402 C 1037.265 742.386, 1057.796 741.550, 1063.301 739.438 C 1066.391 738.252, 1067.452 732.100, 1067.429 715.500 C 1067.405 697.780, 1066.360 692.558, 1062.653 691.628 C 1057.857 690.424, 1031.136 688.932, 1000.242 688.142 C 982.501 687.689, 967.790 687.124, 967.553 686.886 C 967.315 686.649, 966.803 677.404, 966.413 666.342 L 965.706 646.230 972.603 645.099 C 976.396 644.477, 993 643.611, 1009.500 643.174 C 1043.540 642.273, 1045.393 641.890, 1048.445 635.122 C 1049.865 631.974, 1050.092 628.775, 1049.823 615.777 C 1049.330 592.023, 1050.833 592.839, 1006 591.981 C 982.331 591.529, 972.771 591.004, 970.818 590.050 C 966.201 587.796, 965.623 584.638, 966.366 565.737 C 966.736 556.327, 967.180 548.487, 967.353 548.314 C 967.525 548.141, 983.379 547.752, 1002.583 547.449 C 1040.741 546.846, 1055.469 545.821, 1060.539 543.414 C 1066.137 540.758, 1067 537.435, 1067 518.533 C 1067 508.460, 1066.571 501.066, 1065.914 499.840 C 1065.317 498.725, 1062.730 496.842, 1060.164 495.656 C 1055.552 493.524, 1054.788 493.499, 992 493.373 C 957.075 493.303, 925.231 493.557, 921.235 493.938 M 1101.157 493.995 C 1099.319 494.430, 1097.371 495.229, 1096.828 495.772 C 1095.207 497.393, 1094.176 519.702, 1093.044 577.642 C 1091.151 674.584, 1089.971 721.073, 1088.934 739.500 C 1085.044 808.640, 1074.956 857.144, 1047.992 936.353 C 1038.577 964.008, 1033.058 977.347, 1020.348 1003.165 C 978.827 1087.507, 920.857 1159.873, 848.500 1217.692 C 786.543 1267.201, 722.240 1299.211, 643 1319.991 C 632.275 1322.804, 619.077 1326.462, 613.671 1328.120 C 600.445 1332.177, 600.598 1331.823, 600.542 1358.500 C 600.494 1381.433, 600.974 1383.493, 607.180 1386.981 C 612.059 1389.723, 617.450 1389.454, 638.306 1385.430 C 680.911 1377.208, 722.158 1363.403, 767.835 1342.078 C 853.901 1301.895, 926.025 1244.387, 990.455 1164.570 C 1081.793 1051.419, 1133.422 922.216, 1148.923 768 C 1153.124 726.200, 1153.485 713.456, 1153.490 606.500 C 1153.496 494.390, 1153.630 497.137, 1148 494.293 C 1145.170 492.863, 1106.972 492.620, 1101.157 493.995 M 366.326 546.045 C 353.669 548.547, 340.969 558.982, 334.689 572.040 C 328.140 585.657, 326.550 594.579, 326.591 617.500 C 326.632 640.782, 327.905 647.251, 335.468 662.617 C 343.973 679.898, 356.305 688.955, 372.486 689.804 C 401.857 691.346, 420.670 670.806, 424.973 632.500 C 427.667 608.509, 424.111 583.369, 415.821 567.816 C 411.616 559.927, 402.952 551.874, 395.783 549.192 C 385.776 545.448, 375.108 544.308, 366.326 546.045 M 768 575.448 C 768 607.595, 768.381 609.891, 774.042 611.865 C 781.713 614.539, 806.900 612.163, 815.618 607.943 C 818.234 606.677, 821.777 603.693, 823.989 600.894 C 829.307 594.167, 831.428 587.369, 831.444 577 C 831.455 569.876, 831.032 567.609, 828.835 563 C 825.545 556.098, 821.958 552.335, 816.093 549.631 C 811.952 547.722, 809.362 547.480, 789.750 547.172 L 768 546.831 768 575.448 M 524 771.018 C 519.875 771.398, 515.712 772.048, 514.750 772.462 C 513.094 773.174, 513 781.769, 513 932.857 C 513 1109.943, 514.702 1372.233, 515.880 1376.654 C 516.735 1379.866, 521.494 1383.478, 526.882 1385.004 C 532.944 1386.720, 546.894 1388.981, 555.424 1389.629 C 564.523 1390.320, 565.730 1389.672, 567.890 1382.935 C 570.899 1373.550, 571.154 1361.986, 571.922 1200.500 C 572.409 1098.070, 573.074 1034.594, 573.677 1033.111 C 574.491 1031.106, 575.954 1035.130, 582.768 1058.111 C 598.154 1110.004, 621.285 1192.316, 632.477 1235 C 643.335 1276.413, 646.908 1286.810, 651.041 1289.022 C 653.945 1290.576, 658.840 1289.744, 669.516 1285.881 C 675.139 1283.846, 678.630 1281.969, 679.631 1280.440 C 680.863 1278.560, 681.351 1271.940, 682.145 1246.359 C 683.386 1206.368, 682.614 786.733, 681.285 779.226 C 680.772 776.326, 679.802 773.401, 679.128 772.726 C 677.490 771.086, 637.022 770.388, 631.915 771.912 C 625.147 773.931, 625.500 768.317, 625.500 874 C 625.500 980.214, 625.431 985.202, 623.984 983 C 621.452 979.146, 609.286 938.030, 589.514 866.500 C 576.455 819.257, 565.531 782.229, 563.109 777 C 561.778 774.125, 560.686 773.304, 556.994 772.404 C 550.901 770.917, 533.177 770.173, 524 771.018 M 104.308 772.010 C 98.675 774.279, 97.368 782.004, 98.983 803.500 C 101.134 832.146, 106.100 863.668, 112.611 890 C 121.793 927.133, 157.065 1014, 162.961 1014 C 164.897 1014, 165.266 1008.322, 165.973 967.691 C 166.408 942.663, 167.117 924.483, 167.680 923.920 C 168.779 922.821, 176.269 935.737, 188.927 960.557 C 193.431 969.388, 198.145 977.903, 199.402 979.480 L 201.689 982.347 205.228 976.067 C 207.174 972.613, 213.207 959.712, 218.633 947.398 C 224.060 935.084, 228.786 925.007, 229.137 925.004 C 229.487 925.002, 230.051 926.462, 230.390 928.250 C 231.526 934.224, 232.881 1049.464, 232.941 1145.121 L 233 1239.741 245.250 1250.198 C 263.763 1266, 273.937 1273.797, 279.815 1276.686 C 287.456 1280.442, 287.897 1279.748, 289.230 1261.886 C 290.514 1244.682, 290.950 786.133, 289.689 778.753 C 288.487 771.715, 287.750 771.500, 264.808 771.500 L 245.116 771.500 241.542 774.962 C 237.299 779.071, 231.139 790.814, 220.013 816 C 209.614 839.539, 197.882 864, 196.991 864 C 195.933 864, 183.900 840.841, 166.289 804.912 L 150.315 772.323 139.502 771.662 C 124.776 770.761, 106.972 770.937, 104.308 772.010 M 322.441 772.419 C 320.581 773.779, 320.500 775.359, 320.500 810.169 C 320.500 845.021, 320.584 846.642, 322.555 849.998 C 325.837 855.585, 327.905 856.201, 341.252 855.571 C 374.681 853.994, 387.690 845.579, 391.187 823.273 C 392.504 814.874, 391.707 798.620, 389.751 793.973 C 388.947 792.063, 386.196 787.939, 383.638 784.809 C 374.980 774.217, 364.072 771.027, 336.441 771.008 C 327.596 771.002, 323.865 771.378, 322.441 772.419 M 414.307 771.649 C 410.273 772.523, 409.499 777.501, 409.510 802.500 C 409.526 837.666, 411.105 842.973, 423.344 848.998 C 444.853 859.587, 471.976 851.329, 475.908 832.994 C 477.053 827.653, 477.472 776.393, 476.393 773.582 C 475.907 772.315, 474.131 772, 467.478 772 L 459.171 772 458.609 779.250 C 458.300 783.237, 457.784 793.475, 457.462 802 C 456.679 822.745, 455.517 829.448, 452.260 832.010 C 448.363 835.076, 442.545 836.488, 438.217 835.418 C 432.171 833.925, 431.075 830.415, 429.907 808.815 C 428.669 785.891, 427.491 774.091, 426.324 772.924 C 425.227 771.827, 417.345 770.990, 414.307 771.649 M 713.283 771.701 C 711.666 772.014, 710.858 773.127, 710.298 775.815 C 709.241 780.884, 709.292 1240.097, 710.351 1252.351 C 711.351 1263.934, 712.942 1266.561, 718.315 1265.503 C 722.444 1264.690, 756.092 1248.263, 771.512 1239.533 C 804.393 1220.916, 831.970 1199.074, 846.047 1180.500 C 855.741 1167.708, 860.729 1158.020, 868.496 1136.901 L 873 1124.654 873 978.760 L 873 832.865 866.038 819.182 C 855.350 798.180, 847.617 789.955, 829.626 780.459 C 817.992 774.318, 812.659 773.032, 794.500 771.990 C 778.718 771.085, 717.591 770.868, 713.283 771.701 M 907.658 772.009 C 897.692 773.282, 898.546 767.002, 898.168 841.785 C 897.811 912.220, 899.453 1059.174, 901.034 1098.396 C 901.631 1113.216, 902.424 1122.806, 903.121 1123.646 C 905.611 1126.646, 909.601 1125.217, 914.888 1119.433 C 928.541 1104.494, 953.266 1071.648, 965.964 1051.580 C 987.445 1017.630, 1014.521 966.299, 1018.197 952.552 C 1019.162 948.946, 1019.154 947.753, 1018.159 946.756 C 1016.586 945.180, 997.772 944.630, 982.693 945.719 L 971.887 946.500 966.473 960.880 C 958.961 980.835, 956.665 983.737, 953.918 976.750 C 952.541 973.247, 951.299 924.551, 952.432 918.509 L 953.041 915.263 974.771 914.597 C 1002.908 913.734, 1027.519 912.156, 1032.243 910.912 C 1037.132 909.625, 1038.781 906.358, 1040.159 895.223 C 1041.218 886.670, 1040.825 870.188, 1039.481 866.770 C 1038.269 863.686, 1032.037 863.013, 1004 862.935 C 988.875 862.892, 972.484 862.507, 967.576 862.078 C 959.606 861.381, 958.404 861.008, 956.326 858.593 C 954.142 856.053, 954 855.072, 954 842.509 C 954 828.018, 954.735 824.536, 958.012 823.496 C 959.181 823.125, 979.795 822.473, 1003.819 822.047 C 1033.314 821.524, 1048.511 820.887, 1050.612 820.086 C 1054.832 818.478, 1056.045 815.351, 1057.304 802.837 C 1058.530 790.653, 1057.261 776.832, 1054.679 774.250 C 1053.713 773.284, 1050.064 772.422, 1044.822 771.921 C 1034.372 770.923, 915.564 770.999, 907.658 772.009 M 342 791.979 C 340.750 792.770, 340.500 796.183, 340.500 812.429 C 340.500 835.068, 340.491 835.044, 349.337 835.778 C 356.837 836.400, 361.224 834.688, 365.981 829.284 C 376.551 817.276, 373.689 800.509, 359.895 793.635 C 354.365 790.879, 345.095 790.022, 342 791.979 M 771.500 823.655 C 770.400 823.888, 768.487 824.294, 767.250 824.558 L 765 825.038 765.038 970.769 C 765.076 1117.171, 765.723 1157.011, 768.186 1164.500 C 769.985 1169.970, 772.332 1170.062, 780.993 1165.004 C 794.367 1157.193, 807.997 1141.736, 813.541 1128.092 C 818.011 1117.090, 818.199 1112.354, 818.700 998 C 819.228 877.231, 818.596 850.928, 814.985 843.469 C 812.057 837.421, 804.934 830.301, 799.334 827.823 C 791.898 824.534, 777.522 822.381, 771.500 823.655 M 388.975 873.042 C 378.309 873.958, 371.254 876.250, 362.148 881.761 C 345.680 891.725, 334.392 904.457, 324.699 924 L 318.500 936.500 318.500 1071.500 C 318.500 1165.511, 318.907 1217.582, 319.840 1243 L 321.180 1279.500 326.623 1289.868 C 333.408 1302.792, 336.551 1307.376, 344.336 1315.707 C 353.037 1325.016, 361.787 1331.353, 374.500 1337.551 C 389.132 1344.684, 398.384 1347.062, 414.073 1347.723 C 429.680 1348.380, 440.090 1346.540, 451.500 1341.107 C 461.863 1336.173, 468.729 1330.639, 474.469 1322.596 C 481.581 1312.629, 484.006 1305.636, 485.052 1292.074 C 489.134 1239.147, 488.232 960.929, 483.899 936.500 C 480.804 919.051, 468.066 899.595, 452.411 888.406 C 434.792 875.813, 414.360 870.864, 388.975 873.042 M 391.196 930.839 C 381.405 934.328, 379.047 938.214, 376.834 954.500 C 375.355 965.387, 374.493 1216.288, 375.839 1244.125 C 376.550 1258.837, 377.287 1265.752, 378.437 1268.504 C 381.237 1275.206, 386.557 1280.656, 393.755 1284.200 C 409.032 1291.721, 425.535 1286.287, 429.570 1272.406 C 430.389 1269.589, 431.481 1262.607, 431.996 1256.892 C 433.222 1243.287, 433.222 1155.402, 431.997 1061.500 C 430.724 964.038, 429.604 945.149, 424.648 937.585 C 423.750 936.214, 420.905 933.857, 418.327 932.346 C 412.047 928.665, 399.285 927.957, 391.196 930.839" stroke="none" fill="#fffcfc" fill-rule="evenodd"/><path d="" stroke="none" fill="#fcfcfc" fill-rule="evenodd"/></svg>