<svg version="1.2" xmlns="http://www.w3.org/2000/svg" viewBox="0 0 131 40" width="131" height="40">
	<style>
		.s0 { fill: #ED453A }
	</style>
	<path fill-rule="evenodd" class="s0" d="m106.16 8.58c-1.65-0.85-3.06-1.79-4.37-2.67-1.15-0.77-2.22-1.49-3.32-2.05-2.24-1.15-3.69-1.63-5.5-1.39q-0.38 0.07-0.74 0.19c0 0 0.93 3.18-2.78 8.54-3.76 5.42-7.18 5.39-8.15 3.9-1.01-1.58 0.3-4.79 2.49-7.64 2.29-2.99 6.32-5.46 6.32-5.46 0 0-1.28-0.79-4.44 1-3.07 1.74-8.38 5.89-13.29 12.88-4.91 6.99-5.89 10.83-6.6 13.87-0.7 3.04-0.06 6.27 3.3 6.27 3.36 0 7.27-5.12 8.37-6.89 2.05-3.32 3.39-8.41 0.6-7.71-1.38 0.35-2.49 1.87-3.19 3.34q-0.67 1.41-1.02 2.94-1.47 0.61-2.72 1.58-1.39 1.03-2.58 2.29c0 0 0-2.43 1.94-6.36 1.94-3.93 5.47-5.7 7.47-5.87 1.81-0.15 4.16 1.39 2.17 7.06-2 5.66-7.88 12.54-14.06 12.62-5.7 0.08-9.43-7.2-1.49-19.9 8.78-14.04 19.09-18.35 22.44-18.83 3.35-0.48 4.43 1 4.43 1 2.02-0.83 4.19-1.19 6.35-1.05 2.8 0.19 5.16 1.6 7.71 3.13 1.18 0.7 2.4 1.43 3.71 2.07-1.08 1.04-2.11 2.12-3.05 3.14h0.01zm-15.2-5.51c0 0-2.39 0.95-5.17 4.02-2.78 3.06-4.4 6.51-3.2 7.42 0.45 0.35 1.51 0.41 3.44-1.33 1.78-1.54 3.18-3.48 4.08-5.65 1.17-2.86 0.89-4.26 0.85-4.44q0-0.02 0-0.02z"/>
	<path class="s0" d="m111.01 10.32c6.53 1.29 12.25-2.75 15.29-6.2q1.67-1.85 2.84-4.06-2.08 2.17-4.61 3.8l-0.02-0.01c-2.83 1.82-6.75 3.47-10.52 3.11-0.95 0.98-1.97 2.12-2.99 3.36z"/>
	<path fill-rule="evenodd" class="s0" d="m113.31 33.53c-0.54 0.86-1.16 2.53 0.63 1.49 2.18-1.26 5.29-5.98 5.29-5.98h1.4q-1.92 2.97-4.26 5.61c-2.21 2.44-4.91 4.67-6.8 4.45-2.22-0.26-1.52-3.17-1.52-3.17 0 0-3.19 3.36-5.37 3.13-2.96-0.33-2.06-3.99-2.06-3.99 0 0-3.36 4.11-5.63 3.99-3.58-0.21-2.68-4.57-1.69-7.63 0.54-1.64 1.03-2.93 1.03-2.93 0 0-0.36 0.1-1.12 0.21-0.4 0.05-1.12 0.09-1.12 0.09q-1.24 2.18-2.69 4.21c-1.19 1.59-6.25 7.03-9.24 5.94-2.75-1.01-1.84-5.23-0.24-8.59 2.35-4.89 8.94-11.92 12.73-11 3.95 0.96 0.1 8.15 0.1 8.15q-0.02 0.01 0.04 0.04 0.37 0.07 0.74-0.04 0.74-0.15 1.44-0.43c0 0 3.96-8.29 8.34-13.71 4.37-5.43 13.11-14.76 16.54-12.5 0.83 0.56 0.45 2.47-0.68 4.79q-0.76 0.24-1.54 0.41 0.94-1.57 1.4-3.34c0.52-2.8-6.03 3.11-10.7 9.47q-4.23 5.75-7.48 12.11 1.27-0.77 2.42-1.72 3.13-2.6 5.94-5.54 2.69-2.78 5.04-5.85 0.75-0.04 1.49-0.15-2.57 3.48-5.58 6.59-0.24 0.24-0.5 0.49c-1.72 1.73-3.54 3.55-5.14 4.9q-2.34 2.01-4.93 3.69c0 0-4.11 8.25-1.87 8.78 1.31 0.31 3.89-3.67 3.89-3.67 0 0 3.36-5.14 5.4-7.47 2.76-3.13 5.15-4.94 7.52-4.99 1.39-0.03 2.21 1.46 2.21 1.46l0.65-1.02h4.02c0 0-7.51 12.75-8.11 13.71zm2.52-11.28q0.08-0.13 0.12-0.27-0.03-0.23-0.2-0.39-0.17-0.16-0.4-0.18c-0.62-0.03-1.47 0.09-3.69 2.55q-2.78 3.07-4.73 6.73c-1.27 2.32-1.79 4.06-1.06 4.5q0.37 0.19 0.77 0.08c0.5-0.12 1.06-0.58 1.91-1.57q0.48-0.57 1.07-1.43l0.01-0.01q0.14-0.21 0.3-0.43c1.47-2 5.17-8.31 5.9-9.58zm-23.11 2.68c0.38-0.98 0.85-2.88-0.13-3.63-1.06-0.79-3.74 1.07-3.77 2.99-0.02 1.92 1.9 2.84 2.36 2.97 0.26 0.07 0.35 0.06 0.48-0.15q0.61-1.05 1.06-2.18zm-2.03 3.57q-1.01-0.46-1.85-1.18-0.85-0.71-1.39-1.68c-0.04-0.06-0.07-0.02-0.1 0.01q-0.01 0.02-0.02 0.03c-0.04 0.04-0.21 0.21-1.64 2.31-1.45 2.11-3.64 6.45-1.65 7.2 1.28 0.47 3.41-1.77 4.57-3.25q1.19-1.55 2.14-3.26c0.06-0.12 0-0.15-0.06-0.18z"/>
	<path class="s0" d="m68.04 10.11h-3.82l-2.17 3.5h3.83z"/>
	<path fill-rule="evenodd" class="s0" d="m59.06 19.68h1.39c0 0-7.02 10.15-10.99 9.68-2.22-0.25-1.56-2.98-1.56-2.98 0 0-3.12 3.64-5.98 2.91-2.59-0.66-0.92-4.97-0.92-4.97q-0.07 0.04-0.46 0.42c-1.47 1.41-6.03 5.79-9.38 4.5-4.11-1.59-1.98-6.88-1.2-8.47 0.67-1.35 1.4-2.65 1.4-2.65 0 0-0.63 0.18-1.02 0.27-0.4 0.09-0.99 0.2-0.99 0.2 0 0-1.95 3.17-3.15 4.75-1.19 1.58-6.26 7.02-9.24 5.94-2.99-1.08-2.24-5.26-0.57-8.59 2.72-5.38 9.17-11.99 13.07-11 3.9 0.99 0.68 7.37 0.68 7.37 0 0 0.78 0.1 2.65-1.18 0.78-0.52 1.62-1.3 2.52-2.14 2.24-2.07 4.83-4.47 7.57-4.06 1.81 0.27 3.49 2.13 1.19 5.65-0.75 1.12-1.98 2.14-2.93 1.14-0.59-0.61-0.07-1.75 0.55-2.53q0.37-0.48 0.92-0.73 0.55-0.25 1.16-0.22c0 0 0.63-1.46-0.98-1.43-1.32 0.03-4.63 3.08-6.5 6.17-1.7 2.84-4.3 7.66-1.7 8.72 2.39 0.96 6.95-4.44 9.06-7.28 2.11-2.83 6.92-9.26 10.95-9.52 1.39-0.09 2.22 1.18 2.22 1.18l0.46-0.75h4.03c0 0-7.58 12.7-8.18 13.65-0.46 0.75-1.08 2.44 0.63 1.5 1.72-0.95 5.3-5.55 5.3-5.55zm-9.13 2.53c1.63-2.24 6.12-10.05 6.12-10.05q-0.03-0.23-0.2-0.39-0.17-0.16-0.4-0.18c-0.62-0.03-1.65 0.18-3.74 2.75-2.08 2.58-3.63 4.63-4.79 6.77-1.28 2.32-1.84 3.97-1.1 4.41q0.37 0.18 0.76 0.08c0.48-0.12 1.11-0.6 1.96-1.58q0.6-0.71 1.4-1.81zm-20.52-10.57c-1.06-0.8-3.74 1.06-3.77 2.98-0.02 1.92 2.43 2.52 2.75 2.54q0.11 0.02 0.21-0.02 0.11-0.04 0.16-0.14 0.43-0.84 0.78-1.73c0.37-0.97 0.84-2.88-0.15-3.62zm-1.6 6.73q-1.1-0.34-2.07-0.95c-0.64-0.41-1.15-0.97-1.5-1.64-0.03-0.06-0.07-0.01-0.1 0.02q-0.01 0.01-0.01 0.02c-0.04 0.04-0.26 0.33-1.7 2.44-1.44 2.11-3.57 6.43-1.57 7.17 1.28 0.47 3.43-1.78 4.59-3.26q1.31-1.74 2.42-3.61c0.05-0.13 0-0.16-0.07-0.18z"/>
	<path class="s0" d="m56.86 40c-2.97-2.06-6.52-3.09-10.13-2.96-0.98 0.03-1.94 0.28-2.8 0.75-0.86 0.47-1.59 1.13-2.15 1.93-1.54-2.68-4.58-4.33-9.28-4.29-3.98 0.04-7.95 1.03-11.68 1.95-3.39 0.84-6.59 1.64-9.43 1.63-5.73 0-9.9-3.6-9.76-9.99 0.24-11.21 9.71-21.29 16.81-25.84 4.07-2.62 7.47-3.39 9.71-3.14 1.62 0.18 3.58 2.06 2.35 4.83-1.82 4.05-4.32 3.71-4.23 1.78q0.07-0.77 0.47-1.43 0.4-0.65 1.05-1.06 0.7-0.37 1.5-0.37c0.37-0.3 0.63-2.52-2.28-1.79-2.92 0.73-6.47 3.6-9.81 7.29-3.35 3.7-8.56 10.69-9.85 18.02-0.6 3.41-0.2 9.61 7.85 9.54 3.1-0.02 6.88-0.96 10.94-1.98 4.89-1.21 10.19-2.54 15.25-2.5 3.23-0.01 6.4 0.86 9.17 2.51 2.4 1.5 5.27 3.63 6.29 5.11z"/>
	<path class="s0" d="m-16.44 25.47h8.07l-0.26-1.84h-5.72v-2.24h3.85v-1.87h-3.85v-1.9h5.61l0.27-1.84h-7.97z"/>
	<path class="s0" d="m-28.4 25.47h2.1v-4.29h4.95v4.29h2.1v-9.66h-2.1v3.5h-4.95v-3.51h-2.09z"/>
	<path class="s0" d="m-39 17.69h3.22v7.77h2.11v-7.77h3.22v-1.89h-8.55z"/>
	<path class="s0" d="m207.47 15.83h2.32l-3.82 6.41v3.25h-2.11v-3.21l-3.86-6.45h2.37l2.56 4.52z"/>
	<path class="s0" d="m196.29 22.37v-6.54l2.06-0.01v9.66h-2.12l-4.69-6.66v6.66h-2.05v-9.66h2.18z"/>
	<path fill-rule="evenodd" class="s0" d="m187.64 25.48h-2.21l-0.8-2.16h-4.24l-0.81 2.15h-2.2l3.85-9.65h2.58zm-5.12-7.8l-1.45 3.83 2.88-0.01z"/>
	<path fill-rule="evenodd" class="s0" d="m169 15.81h4.97q0.98-0.03 1.87 0.4c0.48 0.24 0.88 0.62 1.15 1.09q0.38 0.74 0.39 1.57-0.01 0.83-0.39 1.57c-0.27 0.47-0.67 0.85-1.15 1.1q-0.89 0.43-1.87 0.4h-2.86v3.52h-2.11zm2.13 4.27h2.8c0.35 0.02 0.7-0.09 0.98-0.32 0.22-0.24 0.34-0.56 0.34-0.89 0-0.33-0.12-0.64-0.34-0.88-0.28-0.23-0.63-0.34-0.98-0.31h-2.8z"/>
	<path class="s0" d="m163.37 15.81h2.83l0.01 9.66h-2.05v-7.1l-2.96 6.95h-1.41l-2.93-6.77v6.91h-2.04v-9.65h2.83l2.89 6.73z"/>
	<path class="s0" d="m147.36 23.72h0.01-0.01z"/>
	<path fill-rule="evenodd" class="s0" d="m150.03 24.99c-0.82 0.43-1.74 0.65-2.67 0.64h-0.01c-0.92 0.01-1.84-0.2-2.66-0.64-0.77-0.41-1.4-1.02-1.84-1.77-0.43-0.8-0.66-1.69-0.66-2.59 0-0.91 0.23-1.8 0.66-2.59 0.44-0.75 1.08-1.37 1.84-1.78 0.83-0.42 1.74-0.64 2.66-0.64 0.93 0 1.84 0.22 2.67 0.64 0.78 0.41 1.42 1.02 1.87 1.78 0.43 0.79 0.66 1.68 0.66 2.59 0 0.9-0.23 1.79-0.66 2.58-0.44 0.76-1.09 1.37-1.86 1.78zm-4.2-1.67q0.71 0.41 1.53 0.4 0.83 0.01 1.54-0.4 0.68-0.39 1.06-1.09 0.37-0.76 0.38-1.6-0.01-0.85-0.38-1.61-0.38-0.7-1.06-1.1-0.72-0.39-1.53-0.39-0.82 0-1.53 0.39-0.69 0.39-1.07 1.08-0.39 0.75-0.37 1.6-0.02 0.85 0.37 1.6 0.37 0.71 1.06 1.12z"/>
	<path class="s0" d="m139.42 25.26q-1.07 0.38-2.21 0.37l0.02 0.01c-0.98 0.02-1.95-0.21-2.81-0.65-0.8-0.41-1.47-1.04-1.94-1.81-0.47-0.76-0.72-1.65-0.72-2.55 0-0.89 0.25-1.78 0.72-2.54 0.47-0.77 1.14-1.4 1.94-1.81 0.85-0.44 1.81-0.66 2.77-0.65q1.14-0.02 2.21 0.38c0.64 0.23 1.21 0.62 1.65 1.14l-1.31 1.45q-0.5-0.52-1.17-0.83-0.63-0.26-1.32-0.26-0.89-0.01-1.67 0.41-0.74 0.4-1.18 1.12c-0.29 0.48-0.45 1.03-0.44 1.59q-0.01 0.85 0.42 1.57 0.44 0.73 1.18 1.12 0.8 0.42 1.7 0.41 0.71 0.01 1.38-0.26 0.65-0.28 1.15-0.8l1.32 1.44c-0.46 0.52-1.04 0.91-1.69 1.15z"/>
</svg>