<svg xmlns="http://www.w3.org/2000/svg" width="444" height="150" fill="none"><path fill="#E10014" d="M443.478 0H.522v150h442.956z"/><path fill="#fff" d="M50.744 32.419h34.804c13.834 0 23.172 7.8 23.172 18.606 0 9.659-6.47 18.102-16.197 22.438 6.974 3.35 11.586 10.164 11.586 17.964 0 16.106-15.693 26.155-33.267 26.155H32.94zm18.744 67.199c7.847 0 13.835-4.841 13.835-11.403 0-3.716-2.983-5.712-8.971-5.712H61.48l-3.602 17.115h11.632zm3.855-33.474c7.341 0 12.962-4.588 12.962-10.668-.115-3.35-2.868-5.093-8.351-5.093H68.18L64.945 66.12h8.398zM223.572 90.44c0-21.084 20.809-38.429 41.847-38.429 11.334 0 19.548 5.208 24.526 12.022l-15.44 10.279c-1.996-3.098-6.608-4.841-10.347-4.841-10.715 0-20.672 10.416-20.672 20.465 0 6.561 4.979 11.655 11.586 11.655 5.116 0 10.829-2.845 14.454-6.333l12.321 12.642c-7.962 7.319-17.437 11.15-28.266 11.15-17.184 0-30.009-12.779-30.009-28.632M344.687 90.44c0-21.084 20.809-38.429 41.847-38.429 11.334 0 19.548 5.208 24.526 12.022l-15.44 10.279c-1.996-3.098-6.608-4.841-10.347-4.841-10.715 0-20.672 10.416-20.672 20.465 0 6.561 4.979 11.655 11.586 11.655 5.117 0 10.829-2.845 14.454-6.333l12.321 12.642c-7.962 7.319-17.437 11.15-28.266 11.15-17.184 0-30.009-12.779-30.009-28.632M139.165 101.591c-3.052 0-5.782-1.01-7.847-2.73l27.784-12.367 20.35-9.062c-.481-4.336-1.927-8.397-4.198-11.93-5.185-8.1-14.569-13.49-25.903-13.49-20.923 0-41.733 17.23-41.733 38.428 0 1.698.161 3.35.436 4.979a27.9 27.9 0 0 0 4.933 11.609c5.346 7.296 14.247 12.068 24.893 12.068 10.645 0 20.35-4.153 28.105-10.852l-12.642-12.963c-3.877 3.786-9.016 6.31-14.224 6.31m9.085-32.12c3.763 0 6.952 1.537 9.086 3.992l-29.803 13.26c1.812-9.016 11.012-17.252 20.717-17.252"/><path fill="#fff" d="m219.671 28.702-22.277 9.91-3.166 14.868h-8.466l-3.602 16.725h8.603c-5.598 26.04-6.217 28.77-6.217 31.982 0 9.797 6.974 16.863 17.551 16.863 5.736 0 11.953-2.11 16.312-5.575l-2.248-14.637c-1.377 1.239-4.359 2.73-7.227 2.73-2.248 0-3.487-1.124-3.487-3.854 0-1.492.367-2.983 5.483-27.532h13.33l3.487-16.725h-13.33l5.254-24.801zM301.99 32.419h20.006l-17.758 85.163h-20.006zM326.011 53.48h20.098l-13.444 64.102h-20.098zm2.937-16.496c0-6.7 5.988-12.023 12.205-12.023 5.736 0 9.958 4.589 9.958 10.164 0 6.332-5.736 11.907-11.839 11.907s-10.347-4.473-10.347-10.048"/></svg>
